# xmcd CD database file generated by Grip 2.96
# 
# Track frame offsets:
#       150
#       22545
#       63750
#       81923
#       109810
#       114833
#       133480
#       145398
#       181880
# 
# Disc length: 2717 seconds
# 
# Revision: 1
# Processed by: cddbd v1.4PL0 Copyright (c) Steve Scherf et al.
# Submitted via: Gronk 1.4
# 
DISCID=710a9b09
DTITLE=Lenny Pickett - Lenny Pickett With The Borneo Horns
DYEAR=1900
DGENRE=blues
TTITLE0=Dance Music For Borneo Horns # 1
TTITLE1=Solo For Saxaphone And Tape
TTITLE2=Dance Music For Borneo Horns # 2
TTITLE3=Septet #2
TTITLE4=Dance Suite Section D
TTITLE5=Dance Music For Borneo Horns #4
TTITLE6=Dance Suite Section 1
TTITLE7=Dance Music For Borneo Horns # 5
TTITLE8=Landscape
EXTD=
EXTT0=
EXTT1=
EXTT2=
EXTT3=
EXTT4=
EXTT5=
EXTT6=
EXTT7=
EXTT8=
PLAYORDER=
